<?xml version="1.0" standalone="no"?>
<!DOCTYPE svg PUBLIC "-//W3C//DTD SVG 20010904//EN"
 "http://www.w3.org/TR/2001/REC-SVG-20010904/DTD/svg10.dtd">
<svg version="1.0" xmlns="http://www.w3.org/2000/svg"
 width="400.000000pt" height="400.000000pt" viewBox="0 0 400.000000 400.000000"
 preserveAspectRatio="xMidYMid meet">
<metadata>
Created by potrace 1.14, written by Peter Selinger 2001-2017
</metadata>
<g transform="translate(0.000000,400.000000) scale(0.100000,-0.100000)"
fill="#000000" stroke="none">
<path d="M0 2000 l0 -2000 2000 0 2000 0 0 2000 0 2000 -2000 0 -2000 0 0
-2000z m1361 1489 c62 -14 124 -41 203 -93 l59 -38 121 50 c111 46 159 58 311
78 93 12 207 6 265 -14 60 -21 160 -69 160 -77 0 -3 -21 5 -47 19 -136 68
-277 84 -413 46 -41 -12 -165 -61 -276 -110 -111 -49 -219 -91 -240 -94 -36
-6 -35 -4 23 23 59 28 61 31 54 58 -15 58 -151 133 -271 149 -25 3 -75 -1
-115 -9 -38 -8 -71 -14 -73 -12 -2 2 16 10 40 18 52 19 129 21 199 6z m1547
-56 c-16 -2 -40 -2 -55 0 -16 2 -3 4 27 4 30 0 43 -2 28 -4z m-95 -10 c-7 -2
-19 -2 -25 0 -7 3 -2 5 12 5 14 0 19 -2 13 -5z m-128 -38 c-93 -36 -120 -41
-143 -26 -9 5 3 10 35 15 26 3 75 15 108 25 97 31 97 23 0 -14z m-1240 -1262
c-40 -10 -34 -20 22 -37 40 -12 69 -30 95 -56 20 -21 34 -41 31 -44 -3 -3 6
-11 21 -17 51 -23 25 -29 -99 -23 -117 7 -129 5 -187 -17 -49 -19 -79 -40
-135 -96 -40 -40 -73 -78 -73 -84 0 -7 16 2 35 21 19 19 43 35 52 37 98 20
147 5 217 -63 33 -32 36 -39 36 -93 0 -56 -1 -58 -25 -56 -16 2 -25 -2 -25
-10 0 -8 -9 -17 -20 -20 -23 -7 -25 -23 -8 -60 23 -52 99 -46 119 10 l13 35
121 0 c66 0 126 -4 132 -8 10 -6 10 -23 2 -71 -30 -189 -100 -273 -271 -326
l-43 -14 35 0 c32 -1 33 -2 15 -14 -29 -20 -80 -28 -93 -15 -9 9 -18 8 -37 0
-20 -9 -25 -9 -25 2 0 9 -8 12 -25 8 -14 -2 -33 2 -42 9 -12 10 -14 10 -9 2 4
-7 4 -13 0 -13 -17 0 -80 26 -92 38 -7 6 -27 12 -44 12 -22 0 -29 4 -25 14 4
9 -2 17 -13 21 -10 3 -25 19 -32 35 -7 16 -21 31 -32 34 -15 4 -17 8 -8 19 9
11 6 17 -16 27 -15 7 -30 13 -34 12 -5 -1 -8 3 -8 9 0 6 -7 9 -15 5 -12 -4
-14 0 -9 18 3 13 0 27 -9 34 -15 13 -16 132 -2 273 7 72 32 134 62 152 7 4 13
15 13 23 0 8 4 12 10 9 6 -3 7 1 4 10 -6 14 -9 14 -28 -2 -20 -18 -20 -18 -6
2 8 11 16 22 17 24 1 2 9 -2 18 -9 12 -10 15 -10 15 3 0 9 7 20 15 25 9 4 17
18 18 30 1 16 6 21 19 16 14 -4 16 -1 11 13 -3 10 -3 15 1 11 11 -9 50 28 42
41 -4 5 -2 13 4 16 6 4 9 1 8 -6 -2 -6 2 -13 9 -16 8 -3 11 3 8 15 -3 16 12
26 93 57 53 21 106 41 117 46 11 4 34 7 50 7 20 0 23 -2 10 -5z m52 -29 c-3
-3 -12 -4 -19 -1 -8 3 -5 6 6 6 11 1 17 -2 13 -5z m280 -162 c14 -11 23 -33
27 -67 9 -75 -3 -84 -53 -39 -23 21 -39 44 -37 51 3 7 1 13 -5 13 -6 0 -9 6
-6 14 4 9 0 12 -12 9 -10 -2 -22 2 -29 9 -9 11 -5 13 22 10 19 -2 37 1 40 7
10 16 28 13 53 -7z m87 -151 c10 -9 20 -14 23 -11 7 9 53 -42 57 -64 2 -11 9
-45 15 -74 6 -30 9 -57 6 -61 -2 -4 -5 -41 -5 -82 -1 -41 -6 -127 -12 -192
-10 -108 -13 -121 -38 -146 -28 -28 -71 -34 -91 -14 -7 7 -18 9 -25 6 -8 -3
-14 0 -14 7 0 6 5 8 10 5 15 -9 12 6 -4 24 -7 9 -19 30 -25 46 l-11 30 5 -30
c4 -25 3 -27 -6 -12 -6 10 -8 30 -4 45 4 15 7 29 7 32 0 3 4 10 9 16 5 6 20
69 34 140 23 113 25 144 19 247 -6 111 -5 117 12 111 11 -4 27 -14 38 -23z
m609 -66 c22 -15 39 -36 43 -53 16 -78 16 -74 -8 -67 -23 7 -23 7 -3 -9 19
-16 19 -16 -10 -10 -22 4 -26 3 -16 -4 12 -8 7 -12 -20 -15 -27 -3 -26 -4 9
-3 36 1 42 -2 42 -19 0 -37 28 -65 65 -65 36 0 65 28 65 62 0 16 13 18 151 18
l151 0 -7 -42 c-21 -130 -70 -222 -152 -282 -86 -64 -228 -93 -324 -66 -115
32 -203 163 -224 333 -6 45 -4 57 6 57 10 0 14 18 15 69 1 79 12 96 71 110 68
16 106 12 146 -14z m-1796 -72 c-60 -63 -86 -189 -65 -308 l8 -40 -16 40 c-34
87 -2 246 63 311 33 33 43 30 10 -3z m2149 -68 c17 -17 11 -18 -36 -9 -22 5
-28 9 -18 15 20 13 38 11 54 -6z m558 -27 c61 -40 77 -72 20 -38 -44 26 -93
70 -79 70 6 0 32 -15 59 -32z m-1204 -148 c19 -148 -7 -244 -48 -179 -8 13
-11 40 -8 77 3 31 8 87 11 123 10 134 28 126 45 -21z m-1455 -210 c-6 -25 -4
-29 13 -25 14 2 19 -1 17 -13 -2 -9 -4 -20 -4 -23 -1 -4 -13 -15 -27 -24 -26
-17 -27 -17 -21 4 8 32 -3 25 -14 -9 -6 -16 -15 -28 -19 -25 -9 6 1 50 20 84
9 18 9 26 -2 39 -11 15 -11 15 3 4 14 -10 18 -10 23 3 10 26 18 16 11 -15z
m973 -9 c3 -38 -23 -61 -44 -39 -13 13 -12 18 12 41 15 15 27 27 28 27 1 0 3
-13 4 -29z m-879 -32 c8 -24 7 -37 -4 -57 -14 -26 -14 -25 -10 23 6 58 1 52
-19 -25 l-15 -55 0 41 c-1 44 16 104 29 104 4 0 13 -14 19 -31z m1081 -201
c26 -83 115 -105 176 -44 19 19 34 43 34 54 0 12 5 24 10 27 18 11 11 -36 -10
-70 -26 -42 -81 -69 -125 -61 -59 11 -115 73 -115 128 0 29 14 13 30 -34z
m488 -174 c16 -5 22 -13 20 -28 -3 -20 -8 -21 -138 -20 -490 4 -611 7 -607 18
6 19 67 31 89 17 11 -7 18 -9 15 -4 -3 5 52 7 121 5 70 -2 161 1 202 6 89 11
265 14 298 6z m6 -195 c-18 -20 -85 -68 -124 -89 -15 -8 -20 -8 -20 2 0 7 24
27 53 45 28 17 63 43 77 58 14 14 26 21 28 15 2 -6 -4 -20 -14 -31z m-144 -24
c0 -23 -69 -63 -130 -76 -113 -24 -282 10 -311 62 -9 18 -1 19 153 22 90 1
191 4 226 5 49 2 62 -1 62 -13z m-22 -77 c-3 -7 -20 -14 -39 -15 l-34 -2 30
14 c38 18 48 18 43 3z"/>
<path d="M932 1540 c0 -14 2 -19 5 -12 2 6 2 18 0 25 -3 6 -5 1 -5 -13z"/>
<path d="M937 1448 c-3 -12 -2 -29 3 -37 7 -12 9 -6 10 22 0 42 -5 48 -13 15z"/>
</g>
</svg>
